<svg width="312" height="428" viewBox="0 0 312 428" fill="none" xmlns="http://www.w3.org/2000/svg">
<path d="M156 116C156 72.9218 190.922 38 234 38V38C277.078 38 312 72.9218 312 116V272H256C200.772 272 156 227.228 156 172V116Z" fill="#66E2DC"/>
<path d="M78 77C78 55.4609 95.4609 38 117 38V38C138.539 38 156 55.4609 156 77V77C156 98.5391 138.539 116 117 116V116C95.4609 116 78 98.5391 78 77V77Z" fill="#FCFAF9"/>
<path fill-rule="evenodd" clip-rule="evenodd" d="M78 0V77C78 98.5391 60.5391 116 39 116C17.4609 116 0 98.5391 0 77V0H78Z" fill="#66E2DC"/>
<path d="M0 194C0 150.922 34.9218 116 78 116V116C121.078 116 156 150.922 156 194V194C156 237.078 121.078 272 78 272V272C34.9218 272 0 237.078 0 194V194Z" fill="#FFB964"/>
<path fill-rule="evenodd" clip-rule="evenodd" d="M2 350C2 391.974 36.0264 426 78 426C119.974 426 154 391.974 154 350C154 308.026 119.974 274 78 274C36.0264 274 2 308.026 2 350ZM78 272C34.9218 272 0 306.922 0 350C0 393.078 34.9218 428 78 428C121.078 428 156 393.078 156 350C156 306.922 121.078 272 78 272Z" fill="#FCFAF9"/>
<path fill-rule="evenodd" clip-rule="evenodd" d="M41 389C41 409.435 57.5655 426 78 426C98.4345 426 115 409.435 115 389C115 368.565 98.4345 352 78 352C57.5655 352 41 368.565 41 389ZM78 350C56.4609 350 39 367.461 39 389C39 410.539 56.4609 428 78 428C99.5391 428 117 410.539 117 389C117 367.461 99.5391 350 78 350Z" fill="#FCFAF9"/>
</svg>
