<svg width="559" height="832" viewBox="0 0 559 832" fill="none" xmlns="http://www.w3.org/2000/svg">
<g opacity="0.282458" filter="url(#filter0_f_0_72)">
<circle cx="328" cy="233" r="192" fill="#40FFF6"/>
</g>
<g opacity="0.153178" filter="url(#filter1_f_0_72)">
<circle cx="328" cy="504" r="192" fill="#FF9201"/>
</g>
<path d="M328 34.6667C328 -2.15231 357.848 -32 394.667 -32C431.486 -32 461.333 -2.15232 461.333 34.6667V234.667H428C372.772 234.667 328 189.895 328 134.667V34.6667Z" fill="#66E2DC"/>
<path d="M461.333 234.667H528C564.819 234.667 594.667 264.514 594.667 301.333C594.667 338.152 564.819 368 528 368C491.181 368 461.333 338.152 461.333 301.333V234.667Z" fill="#191826"/>
<rect x="528" y="34.6666" width="66.6667" height="66.6667" rx="33.3333" fill="#FFB964"/>
<rect x="528" y="-32" width="66.6667" height="66.6667" rx="33.3333" fill="#FA7453"/>
<rect x="328" y="234.667" width="133.333" height="133.333" rx="66.6667" fill="#FA7453"/>
<rect x="461.333" y="-32" width="66.6667" height="133.333" rx="33.3333" fill="#191826"/>
<rect x="462.333" y="102.333" width="131.333" height="131.333" rx="65.6667" stroke="#191826" stroke-width="2"/>
<rect x="462.333" y="135.667" width="64.6667" height="64.6667" rx="32.3333" stroke="#191826" stroke-width="2"/>
<defs>
<filter id="filter0_f_0_72" x="0.085907" y="-94.9141" width="655.828" height="655.828" filterUnits="userSpaceOnUse" color-interpolation-filters="sRGB">
<feFlood flood-opacity="0" result="BackgroundImageFix"/>
<feBlend mode="normal" in="SourceGraphic" in2="BackgroundImageFix" result="shape"/>
<feGaussianBlur stdDeviation="67.957" result="effect1_foregroundBlur_0_72"/>
</filter>
<filter id="filter1_f_0_72" x="0.085907" y="176.086" width="655.828" height="655.828" filterUnits="userSpaceOnUse" color-interpolation-filters="sRGB">
<feFlood flood-opacity="0" result="BackgroundImageFix"/>
<feBlend mode="normal" in="SourceGraphic" in2="BackgroundImageFix" result="shape"/>
<feGaussianBlur stdDeviation="67.957" result="effect1_foregroundBlur_0_72"/>
</filter>
</defs>
</svg>
